<svg xmlns="http://www.w3.org/2000/svg" width="680" height="360" viewBox="0 0 680 360" font-family="DejaVu Sans, Arial, sans-serif" xmlns:c2pa="http://c2pa.org/manifest"><metadata><c2pa:manifest>AAAWgmp1bWIAAAAeanVtZGMycGEAEQAQgAAAqgA4m3EDYzJwYQAAABZcanVtYgAAAEdqdW1kYzJtYQARABCAAACqADibcQN1cm46YzJwYTozNTk4ZDBlNC03N2VjLTQ2ZDYtOTlkZC0wN2Q5YzRjYmUyMDgAAAADl2p1bWIAAAApanVtZGMyYXMAEQAQgAAAqgA4m3EDYzJwYS5hc3NlcnRpb25zAAAAALxqdW1iAAAARGp1bWRjYm9yABEAEIAAAKoAOJtxE2MycGEuaW5ncmVkaWVudC52MwAAAAAYYzJzaA7NO/h45fTqqqUopLuGM1UAAABwY2JvcqNpZGM6Zm9ybWF0bWltYWdlL3N2Zyt4bWxqaW5zdGFuY2VJRHgseG1wOmlpZDo5ZjQ5MGFjMi1hNTExLTQ4MWQtYWY5MC1hZGE1NDk2MjliM2RscmVsYXRpb25zaGlwaHBhcmVudE9mAAAB4mp1bWIAAABBanVtZGNib3IAEQAQgAAAqgA4m3ETYzJwYS5hY3Rpb25zLnYyAAAAABhjMnNohILVV/VTpMzyrqt9tWmrFAAAAZljYm9yomdhY3Rpb25zgqJmYWN0aW9ua2MycGEub3BlbmVkanBhcmFtZXRlcnOha2luZ3JlZGllbnRzgaJjdXJseC1zZWxmI2p1bWJmPWMycGEuYXNzZXJ0aW9ucy9jMnBhLmluZ3JlZGllbnQudjNkaGFzaFggvImX3EbPpVCQys7Gn++feFPXdoHW2J7vHJjz1JukdGikZmFjdGlvbngdY29tLmFudGhyb3BpYy5jbGF1ZGUucHJvdmlkZWRqcGFyYW1ldGVyc6F4H2NvbS5hbnRocm9waWMub3JpZ2luLWNvbmZpZGVuY2VndW5rbm93bmtkZXNjcmlwdGlvbnhmQ2xhdWRlIHByb3ZpZGVkIHRoaXMgZmlsZSBhdCB0aGUgcmVxdWVzdCBvZiBhIHVzZXIgYW5kIG1heSBoYXZlIGNyZWF0ZWQgb3IgbW9kaWZpZWQgdGhlIGZpbGUgY29udGVudHMubXNvZnR3YXJlQWdlbnShZG5hbWVmQ2xhdWRlcmFsbEFjdGlvbnNJbmNsdWRlZPUAAADIanVtYgAAAEBqdW1kY2JvcgARABCAAACqADibcRNjMnBhLmhhc2guZGF0YQAAAAAYYzJzaDocc96Nkso0tzs+oYp9kfwAAACAY2JvcqVjYWxnZnNoYTI1NmNwYWRNAAAAAAAAAAAAAAAAAGRoYXNoWCDmwph5rYUQri+ICKG36lV2nam8ECRxPEOsW+Ek4p0IYGRuYW1lbmp1bWJmIG1hbmlmZXN0amV4Y2x1c2lvbnOBomVzdGFydBjDZmxlbmd0aBkeBAAAAj5qdW1iAAAAJ2p1bWRjMmNsABEAEIAAAKoAOJtxA2MycGEuY2xhaW0udjIAAAACD2Nib3KlY2FsZ2ZzaGEyNTZpc2lnbmF0dXJleE1zZWxmI2p1bWJmPS9jMnBhL3VybjpjMnBhOjM1OThkMGU0LTc3ZWMtNDZkNi05OWRkLTA3ZDljNGNiZTIwOC9jMnBhLnNpZ25hdHVyZWppbnN0YW5jZUlEeCx4bXA6aWlkOjFjMGQzZjQyLWY1OGEtNDY5NS1hM2ViLTA1NzZjZjIwMmVkOHJjcmVhdGVkX2Fzc2VydGlvbnODomN1cmx4LXNlbGYjanVtYmY9YzJwYS5hc3NlcnRpb25zL2MycGEuaW5ncmVkaWVudC52M2RoYXNoWCC8iZfcRs+lUJDKzsaf7594U9d2gdbYnu8cmPPUm6R0aKJjdXJseCpzZWxmI2p1bWJmPWMycGEuYXNzZXJ0aW9ucy9jMnBhLmFjdGlvbnMudjJkaGFzaFggcjmNbgD2uCzkszVdpEcyY/okO5bH81B5aYbKrRJbJQOiY3VybHgpc2VsZiNqdW1iZj1jMnBhLmFzc2VydGlvbnMvYzJwYS5oYXNoLmRhdGFkaGFzaFggyGZKy63+7sWK8rfPAjZ2G0qXylah5NZxEuEcGSvVGB10Y2xhaW1fZ2VuZXJhdG9yX2luZm+jZG5hbWVvQW50aHJvcGljIEZpbGVzZ3ZlcnNpb25lMS4wLjBrc3BlY1ZlcnNpb25lMi40LjAAABA4anVtYgAAAChqdW1kYzJjcwARABCAAACqADibcQNjMnBhLnNpZ25hdHVyZQAAABAIY2JvctKEWQISogEmGCFZAgowggIGMIIBjaADAgECAhRA5aAK7sI50L64g/oGQgU9Z1UTADAKBggqhkjOPQQDAzBJMRcwFQYDVQQKEw5BbnRocm9waWMsIFBCQzEuMCwGA1UEAxMlQW50aHJvcGljIENvbnRlbnQgQ3JlZGVudGlhbHMgUm9vdCBDQTAeFw0yNjA4MDcxODQzNTZaFw0yODA4MDYxOTQzNTZaMEQxFzAVBgNVBAoTDkFudGhyb3BpYywgUEJDMSkwJwYDVQQDEyBBbnRocm9waWMgQ2xhdWRlIENvbnRlbnQgU2lnbmluZzBZMBMGByqGSM49AgEGCCqGSM49AwEHA0IABJh6CmvLUBgFFNU0vUKlOVtE6djd17L5SuwX0LemFisBM3dkd/3cyjxFA3Qo5S46fX0/ihY0VZ7mfb9KF703t5OjWDBWMA4GA1UdDwEB/wQEAwIHgDAVBgNVHSUEDjAMBgorBgEEAYPoXgIBMAwGA1UdEwEB/wQCMAAwHwYDVR0jBBgwFoAUzlHiBIFOZFsj+OPEz5o+nMHXXMIwCgYIKoZIzj0EAwMDZwAwZAIwMXMdFJ4BetLLVY7ORuE9noqbbAZOZn/aArXyTwFAZfKrPzxF2vPoJNf1+UCdg1XGAjBwX1zd9WGqYkqmL5SFqw1QySjr1zJfpJM9+1rdDwSPLMOPOjKuiXjoU/pUUeG9RwmhY3BhZFkNngAAAAAAAAAAAAAAAAAAAAAAAAAAAAAAAAAAAAAAAAAAAAAAAAAAAAAAAAAAAAAAAAAAAAAAAAAAAAAAAAAAAAAAAAAAAAAAAAAAAAAAAAAAAAAAAAAAAAAAAAAAAAAAAAAAAAAAAAAAAAAAAAAAAAAAAAAAAAAAAAAAAAAAAAAAAAAAAAAAAAAAAAAAAAAAAAAAAAAAAAAAAAAAAAAAAAAAAAAAAAAAAAAAAAAAAAAAAAAAAAAAAAAAAAAAAAAAAAAAAAAAAAAAAAAAAAAAAAAAAAAAAAAAAAAAAAAAAAAAAAAAAAAAAAAAAAAAAAAAAAAAAAAAAAAAAAAAAAAAAAAAAAAAAAAAAAAAAAAAAAAAAAAAAAAAAAAAAAAAAAAAAAAAAAAAAAAAAAAAAAAAAAAAAAAAAAAAAAAAAAAAAAAAAAAAAAAAAAAAAAAAAAAAAAAAAAAAAAAAAAAAAAAAAAAAAAAAAAAAAAAAAAAAAAAAAAAAAAAAAAAAAAAAAAAAAAAAAAAAAAAAAAAAAAAAAAAAAAAAAAAAAAAAAAAAAAAAAAAAAAAAAAAAAAAAAAAAAAAAAAAAAAAAAAAAAAAAAAAAAAAAAAAAAAAAAAAAAAAAAAAAAAAAAAAAAAAAAAAAAAAAAAAAAAAAAAAAAAAAAAAAAAAAAAAAAAAAAAAAAAAAAAAAAAAAAAAAAAAAAAAAAAAAAAAAAAAAAAAAAAAAAAAAAAAAAAAAAAAAAAAAAAAAAAAAAAAAAAAAAAAAAAAAAAAAAAAAAAAAAAAAAAAAAAAAAAAAAAAAAAAAAAAAAAAAAAAAAAAAAAAAAAAAAAAAAAAAAAAAAAAAAAAAAAAAAAAAAAAAAAAAAAAAAAAAAAAAAAAAAAAAAAAAAAAAAAAAAAAAAAAAAAAAAAAAAAAAAAAAAAAAAAAAAAAAAAAAAAAAAAAAAAAAAAAAAAAAAAAAAAAAAAAAAAAAAAAAAAAAAAAAAAAAAAAAAAAAAAAAAAAAAAAAAAAAAAAAAAAAAAAAAAAAAAAAAAAAAAAAAAAAAAAAAAAAAAAAAAAAAAAAAAAAAAAAAAAAAAAAAAAAAAAAAAAAAAAAAAAAAAAAAAAAAAAAAAAAAAAAAAAAAAAAAAAAAAAAAAAAAAAAAAAAAAAAAAAAAAAAAAAAAAAAAAAAAAAAAAAAAAAAAAAAAAAAAAAAAAAAAAAAAAAAAAAAAAAAAAAAAAAAAAAAAAAAAAAAAAAAAAAAAAAAAAAAAAAAAAAAAAAAAAAAAAAAAAAAAAAAAAAAAAAAAAAAAAAAAAAAAAAAAAAAAAAAAAAAAAAAAAAAAAAAAAAAAAAAAAAAAAAAAAAAAAAAAAAAAAAAAAAAAAAAAAAAAAAAAAAAAAAAAAAAAAAAAAAAAAAAAAAAAAAAAAAAAAAAAAAAAAAAAAAAAAAAAAAAAAAAAAAAAAAAAAAAAAAAAAAAAAAAAAAAAAAAAAAAAAAAAAAAAAAAAAAAAAAAAAAAAAAAAAAAAAAAAAAAAAAAAAAAAAAAAAAAAAAAAAAAAAAAAAAAAAAAAAAAAAAAAAAAAAAAAAAAAAAAAAAAAAAAAAAAAAAAAAAAAAAAAAAAAAAAAAAAAAAAAAAAAAAAAAAAAAAAAAAAAAAAAAAAAAAAAAAAAAAAAAAAAAAAAAAAAAAAAAAAAAAAAAAAAAAAAAAAAAAAAAAAAAAAAAAAAAAAAAAAAAAAAAAAAAAAAAAAAAAAAAAAAAAAAAAAAAAAAAAAAAAAAAAAAAAAAAAAAAAAAAAAAAAAAAAAAAAAAAAAAAAAAAAAAAAAAAAAAAAAAAAAAAAAAAAAAAAAAAAAAAAAAAAAAAAAAAAAAAAAAAAAAAAAAAAAAAAAAAAAAAAAAAAAAAAAAAAAAAAAAAAAAAAAAAAAAAAAAAAAAAAAAAAAAAAAAAAAAAAAAAAAAAAAAAAAAAAAAAAAAAAAAAAAAAAAAAAAAAAAAAAAAAAAAAAAAAAAAAAAAAAAAAAAAAAAAAAAAAAAAAAAAAAAAAAAAAAAAAAAAAAAAAAAAAAAAAAAAAAAAAAAAAAAAAAAAAAAAAAAAAAAAAAAAAAAAAAAAAAAAAAAAAAAAAAAAAAAAAAAAAAAAAAAAAAAAAAAAAAAAAAAAAAAAAAAAAAAAAAAAAAAAAAAAAAAAAAAAAAAAAAAAAAAAAAAAAAAAAAAAAAAAAAAAAAAAAAAAAAAAAAAAAAAAAAAAAAAAAAAAAAAAAAAAAAAAAAAAAAAAAAAAAAAAAAAAAAAAAAAAAAAAAAAAAAAAAAAAAAAAAAAAAAAAAAAAAAAAAAAAAAAAAAAAAAAAAAAAAAAAAAAAAAAAAAAAAAAAAAAAAAAAAAAAAAAAAAAAAAAAAAAAAAAAAAAAAAAAAAAAAAAAAAAAAAAAAAAAAAAAAAAAAAAAAAAAAAAAAAAAAAAAAAAAAAAAAAAAAAAAAAAAAAAAAAAAAAAAAAAAAAAAAAAAAAAAAAAAAAAAAAAAAAAAAAAAAAAAAAAAAAAAAAAAAAAAAAAAAAAAAAAAAAAAAAAAAAAAAAAAAAAAAAAAAAAAAAAAAAAAAAAAAAAAAAAAAAAAAAAAAAAAAAAAAAAAAAAAAAAAAAAAAAAAAAAAAAAAAAAAAAAAAAAAAAAAAAAAAAAAAAAAAAAAAAAAAAAAAAAAAAAAAAAAAAAAAAAAAAAAAAAAAAAAAAAAAAAAAAAAAAAAAAAAAAAAAAAAAAAAAAAAAAAAAAAAAAAAAAAAAAAAAAAAAAAAAAAAAAAAAAAAAAAAAAAAAAAAAAAAAAAAAAAAAAAAAAAAAAAAAAAAAAAAAAAAAAAAAAAAAAAAAAAAAAAAAAAAAAAAAAAAAAAAAAAAAAAAAAAAAAAAAAAAAAAAAAAAAAAAAAAAAAAAAAAAAAAAAAAAAAAAAAAAAAAAAAAAAAAAAAAAAAAAAAAAAAAAAAAAAAAAAAAAAAAAAAAAAAAAAAAAAAAAAAAAAAAAAAAAAAAAAAAAAAAAAAAAAAAAAAAAAAAAAAAAAAAAAAAAAAAAAAAAAAAAAAAAAAAAAAAAAAAAAAAAAAAAAAAAAAAAAAAAAAAAAAAAAAAAAAAAAAAAAAAAAAAAAAAAAAAAAAAAAAAAAAAAAAAAAAAAAAAAAAAAAAAAAAAAAAAAAAAAAAAAAAAAAAAAAAAAAAAAAAAAAAAAAAAAAAAAAAAAAAAAAAAAAAAAAAAAAAAAAAAAAAAAAAAAAAAAAAAAAAAAAAAAAAAAAAAAAAAAAAAAAAAAAAAAAAAAAAAAAAAAAAAAAAAAAAAAAAAAAAAAAAAAAAAAAAAAAAAAAAAAAAAAAAAAAAAAAAAAAAAAAAAAAAAAAAAAAAAAAAAAAAAAAAAAAAAAAAAAAAAAAAAAAAAAAAAAAAAAAAAAAAAAAAAAAAAAAAAAAAAAAAAAAAAAAAAAAAAAAAAAAAAAAAAAAAAAAAAAAAAAAAAAAAAAAAAAAAAAAAAAAAAAAAAAAAAAAAAAAAAAAAAAAAAAAAAAAAAAAAAAAAAAAAAAAAAAAAAAAAAAAAAAAAAAAAAAAAAAAAAAAAAAAAAAAAAAAAAAAAAAAAAAAAAAAAAAAAAAAAAAAAAAAAAAAAAAAAAAAAAAAAAAAAAAAAAAAAAAAAAAAAAAAAAAAAAAAAAAAAAAAAAAAAAAAAAAAAAAAAAAAAAAAAAAAAAAAAAAAAAAAAAAAAAAAAAAAAAAAAAAAAAAAAAAAAAAAAAAAAAAAAAAAAAAAAAAAAAAAAAAAAAAAAAAAAAAAAAAAAAAAAAAAAAAAAAAAAAAAAAAAAAAAAAAAAAAAAAAAAAAAAAAAAAAAAAAAAAAAAAAAAAAAAAAAAAAAAAAAAAAAAAAAAAAAAAAAAAAAAAAAAAAAAAAAAAAAAAAAAAAAAAAAAAAAAAAAAAAAAAAAAAAAAAAAAAAAAAAAAAAAAAAAAAAAAAAAAAAAAAAAAAAAAAAAAAAAAAAAAAAAAAAAAAAAAAAAAAAAAAAAAAAAAAAAAAAAAAAAAAAAAAAAAAAAAAAAAAAAAAAAAAAAAAAAAAAAAAAAAAAAAAAAAAAAAAAAAAAAAAAAAAAAAAAAAAAAAAAAAAAAAAAAAAAAAAAAAAAAAAAAAAAAAAAAAAAAAAAAAAAAAAAAAAAAAAAAAAAAAAAAAAAAAAAAAAAAAAAAAAAAAAAAAAAAAAAAAAAAAAAAAAAAAAAAAAAAAAAAAAAAAAAAAAAAAAAAAAAAAAAAAAAAAAAAAAAAAAAAAAAAAAAAAAAAAAAAAAAAAAAAAAAAAAAAAAAAAAAAAAAAAAAAAAAAAAAAAAAAAAAAAAAAAAAAAAAAAAAAAAAAAAAAAAAAAAAAAAAAAAAAAAAAAAAAAAAAAAAAAAAAAAAAAAAAAAAAAAAAAAAAAAAAAAAAAAAAAAAAAAAAAAAAAAAAAAAAAAAAAAAAAAAAAAAAAAAAAAAAAAAAAAAAAAAAAAAAAAAAAAAAAAAAAAAAAAAAAAAAAAAAAAAAAAAAAAAAAAAAAAAAAAAAAAAAAAAAAAAAAAAAAAAAAAAAAAAAAAAAAAAAAAAAAAAAAAAAAAAAAAAAAAAAAAAAAAAAAAAAAAAAAAAAAAAAAAAAAAAAAAAAAAAAAAAAAAAAAAAAAAAPZYQP5nIBJfhBepvb91mQf5gZLAVWvx2HfIzEltGo+1PZDpPi78u6/hNeXG0o4MlsYQsf7UTe8nfO19IpWqIubulos=</c2pa:manifest></metadata>
<rect width="680" height="360" fill="#FFFFFF"/>
<rect x="0" y="0" width="680" height="96" fill="#E3F1FB"/><rect x="0" y="264" width="680" height="96" fill="#E3F1FB"/>
<text x="20" y="44" font-size="18" fill="#1D1A15">Watery fluid outside the cell</text>
<text x="20" y="334" font-size="18" fill="#1D1A15">Watery fluid inside the cell (cytoplasm)</text>
<path d="M33 110 q6 15 0 30 q-6 15 0 30" fill="none" stroke="#E69F00" stroke-width="3.5" stroke-linecap="round"/>
<path d="M47 110 q6 15 0 30 q-6 15 0 30" fill="none" stroke="#E69F00" stroke-width="3.5" stroke-linecap="round"/>
<circle cx="40" cy="92" r="17" fill="#0072B2"/>
<path d="M33 250 q-6 -15 0 -30 q6 -15 0 -30" fill="none" stroke="#E69F00" stroke-width="3.5" stroke-linecap="round"/>
<path d="M47 250 q-6 -15 0 -30 q6 -15 0 -30" fill="none" stroke="#E69F00" stroke-width="3.5" stroke-linecap="round"/>
<circle cx="40" cy="268" r="17" fill="#0072B2"/>
<path d="M77 110 q6 15 0 30 q-6 15 0 30" fill="none" stroke="#E69F00" stroke-width="3.5" stroke-linecap="round"/>
<path d="M91 110 q6 15 0 30 q-6 15 0 30" fill="none" stroke="#E69F00" stroke-width="3.5" stroke-linecap="round"/>
<circle cx="84" cy="92" r="17" fill="#0072B2"/>
<path d="M77 250 q-6 -15 0 -30 q6 -15 0 -30" fill="none" stroke="#E69F00" stroke-width="3.5" stroke-linecap="round"/>
<path d="M91 250 q-6 -15 0 -30 q6 -15 0 -30" fill="none" stroke="#E69F00" stroke-width="3.5" stroke-linecap="round"/>
<circle cx="84" cy="268" r="17" fill="#0072B2"/>
<path d="M121 110 q6 15 0 30 q-6 15 0 30" fill="none" stroke="#E69F00" stroke-width="3.5" stroke-linecap="round"/>
<path d="M135 110 q6 15 0 30 q-6 15 0 30" fill="none" stroke="#E69F00" stroke-width="3.5" stroke-linecap="round"/>
<circle cx="128" cy="92" r="17" fill="#0072B2"/>
<path d="M121 250 q-6 -15 0 -30 q6 -15 0 -30" fill="none" stroke="#E69F00" stroke-width="3.5" stroke-linecap="round"/>
<path d="M135 250 q-6 -15 0 -30 q6 -15 0 -30" fill="none" stroke="#E69F00" stroke-width="3.5" stroke-linecap="round"/>
<circle cx="128" cy="268" r="17" fill="#0072B2"/>
<path d="M165 110 q6 15 0 30 q-6 15 0 30" fill="none" stroke="#E69F00" stroke-width="3.5" stroke-linecap="round"/>
<path d="M179 110 q6 15 0 30 q-6 15 0 30" fill="none" stroke="#E69F00" stroke-width="3.5" stroke-linecap="round"/>
<circle cx="172" cy="92" r="17" fill="#0072B2"/>
<path d="M165 250 q-6 -15 0 -30 q6 -15 0 -30" fill="none" stroke="#E69F00" stroke-width="3.5" stroke-linecap="round"/>
<path d="M179 250 q-6 -15 0 -30 q6 -15 0 -30" fill="none" stroke="#E69F00" stroke-width="3.5" stroke-linecap="round"/>
<circle cx="172" cy="268" r="17" fill="#0072B2"/>
<path d="M209 110 q6 15 0 30 q-6 15 0 30" fill="none" stroke="#E69F00" stroke-width="3.5" stroke-linecap="round"/>
<path d="M223 110 q6 15 0 30 q-6 15 0 30" fill="none" stroke="#E69F00" stroke-width="3.5" stroke-linecap="round"/>
<circle cx="216" cy="92" r="17" fill="#0072B2"/>
<path d="M209 250 q-6 -15 0 -30 q6 -15 0 -30" fill="none" stroke="#E69F00" stroke-width="3.5" stroke-linecap="round"/>
<path d="M223 250 q-6 -15 0 -30 q6 -15 0 -30" fill="none" stroke="#E69F00" stroke-width="3.5" stroke-linecap="round"/>
<circle cx="216" cy="268" r="17" fill="#0072B2"/>
<path d="M253 110 q6 15 0 30 q-6 15 0 30" fill="none" stroke="#E69F00" stroke-width="3.5" stroke-linecap="round"/>
<path d="M267 110 q6 15 0 30 q-6 15 0 30" fill="none" stroke="#E69F00" stroke-width="3.5" stroke-linecap="round"/>
<circle cx="260" cy="92" r="17" fill="#0072B2"/>
<path d="M253 250 q-6 -15 0 -30 q6 -15 0 -30" fill="none" stroke="#E69F00" stroke-width="3.5" stroke-linecap="round"/>
<path d="M267 250 q-6 -15 0 -30 q6 -15 0 -30" fill="none" stroke="#E69F00" stroke-width="3.5" stroke-linecap="round"/>
<circle cx="260" cy="268" r="17" fill="#0072B2"/>
<path d="M297 110 q6 15 0 30 q-6 15 0 30" fill="none" stroke="#E69F00" stroke-width="3.5" stroke-linecap="round"/>
<path d="M311 110 q6 15 0 30 q-6 15 0 30" fill="none" stroke="#E69F00" stroke-width="3.5" stroke-linecap="round"/>
<circle cx="304" cy="92" r="17" fill="#0072B2"/>
<path d="M297 250 q-6 -15 0 -30 q6 -15 0 -30" fill="none" stroke="#E69F00" stroke-width="3.5" stroke-linecap="round"/>
<path d="M311 250 q-6 -15 0 -30 q6 -15 0 -30" fill="none" stroke="#E69F00" stroke-width="3.5" stroke-linecap="round"/>
<circle cx="304" cy="268" r="17" fill="#0072B2"/>
<path d="M341 110 q6 15 0 30 q-6 15 0 30" fill="none" stroke="#E69F00" stroke-width="3.5" stroke-linecap="round"/>
<path d="M355 110 q6 15 0 30 q-6 15 0 30" fill="none" stroke="#E69F00" stroke-width="3.5" stroke-linecap="round"/>
<circle cx="348" cy="92" r="17" fill="#0072B2"/>
<path d="M341 250 q-6 -15 0 -30 q6 -15 0 -30" fill="none" stroke="#E69F00" stroke-width="3.5" stroke-linecap="round"/>
<path d="M355 250 q-6 -15 0 -30 q6 -15 0 -30" fill="none" stroke="#E69F00" stroke-width="3.5" stroke-linecap="round"/>
<circle cx="348" cy="268" r="17" fill="#0072B2"/>
<path d="M385 110 q6 15 0 30 q-6 15 0 30" fill="none" stroke="#E69F00" stroke-width="3.5" stroke-linecap="round"/>
<path d="M399 110 q6 15 0 30 q-6 15 0 30" fill="none" stroke="#E69F00" stroke-width="3.5" stroke-linecap="round"/>
<circle cx="392" cy="92" r="17" fill="#0072B2"/>
<path d="M385 250 q-6 -15 0 -30 q6 -15 0 -30" fill="none" stroke="#E69F00" stroke-width="3.5" stroke-linecap="round"/>
<path d="M399 250 q-6 -15 0 -30 q6 -15 0 -30" fill="none" stroke="#E69F00" stroke-width="3.5" stroke-linecap="round"/>
<circle cx="392" cy="268" r="17" fill="#0072B2"/>
<path d="M429 110 q6 15 0 30 q-6 15 0 30" fill="none" stroke="#E69F00" stroke-width="3.5" stroke-linecap="round"/>
<path d="M443 110 q6 15 0 30 q-6 15 0 30" fill="none" stroke="#E69F00" stroke-width="3.5" stroke-linecap="round"/>
<circle cx="436" cy="92" r="17" fill="#0072B2"/>
<path d="M429 250 q-6 -15 0 -30 q6 -15 0 -30" fill="none" stroke="#E69F00" stroke-width="3.5" stroke-linecap="round"/>
<path d="M443 250 q-6 -15 0 -30 q6 -15 0 -30" fill="none" stroke="#E69F00" stroke-width="3.5" stroke-linecap="round"/>
<circle cx="436" cy="268" r="17" fill="#0072B2"/>
<path d="M473 110 q6 15 0 30 q-6 15 0 30" fill="none" stroke="#E69F00" stroke-width="3.5" stroke-linecap="round"/>
<path d="M487 110 q6 15 0 30 q-6 15 0 30" fill="none" stroke="#E69F00" stroke-width="3.5" stroke-linecap="round"/>
<circle cx="480" cy="92" r="17" fill="#0072B2"/>
<path d="M473 250 q-6 -15 0 -30 q6 -15 0 -30" fill="none" stroke="#E69F00" stroke-width="3.5" stroke-linecap="round"/>
<path d="M487 250 q-6 -15 0 -30 q6 -15 0 -30" fill="none" stroke="#E69F00" stroke-width="3.5" stroke-linecap="round"/>
<circle cx="480" cy="268" r="17" fill="#0072B2"/>
<path d="M517 110 q6 15 0 30 q-6 15 0 30" fill="none" stroke="#E69F00" stroke-width="3.5" stroke-linecap="round"/>
<path d="M531 110 q6 15 0 30 q-6 15 0 30" fill="none" stroke="#E69F00" stroke-width="3.5" stroke-linecap="round"/>
<circle cx="524" cy="92" r="17" fill="#0072B2"/>
<path d="M517 250 q-6 -15 0 -30 q6 -15 0 -30" fill="none" stroke="#E69F00" stroke-width="3.5" stroke-linecap="round"/>
<path d="M531 250 q-6 -15 0 -30 q6 -15 0 -30" fill="none" stroke="#E69F00" stroke-width="3.5" stroke-linecap="round"/>
<circle cx="524" cy="268" r="17" fill="#0072B2"/>
<line x1="600" y1="92" x2="545" y2="92" stroke="#1D1A15" stroke-width="2"/><text x="606" y="98" font-size="18" fill="#1D1A15">Head</text>
<line x1="600" y1="150" x2="538" y2="150" stroke="#1D1A15" stroke-width="2"/><text x="606" y="156" font-size="18" fill="#1D1A15">Tails</text>
</svg>